<?xml version="1.0" standalone="no"?>
<!DOCTYPE svg PUBLIC "-//W3C//DTD SVG 20010904//EN"
 "http://www.w3.org/TR/2001/REC-SVG-20010904/DTD/svg10.dtd">
<svg version="1.0" xmlns="http://www.w3.org/2000/svg"
 width="1200.000000pt" height="1200.000000pt" viewBox="0 0 1200.000000 1200.000000"
 preserveAspectRatio="xMidYMid meet">
<metadata>
Created by potrace 1.14, written by Peter Selinger 2001-2017
</metadata>
<g transform="translate(0.000000,1200.000000) scale(0.100000,-0.100000)"
fill="#000000" stroke="none">
<path d="M7720 8803 c-71 -12 -178 -52 -295 -111 -139 -69 -191 -97 -215 -112
-8 -5 -51 -30 -95 -56 -73 -43 -255 -158 -280 -176 -5 -4 -68 -51 -140 -104
-242 -180 -473 -389 -648 -587 -29 -33 -61 -69 -72 -81 -48 -54 -74 -86 -130
-161 -33 -44 -62 -82 -65 -85 -25 -24 -211 -324 -252 -405 -172 -343 -258
-459 -385 -519 -109 -52 -162 -56 -718 -47 -22 1 -47 1 -55 1 -8 -1 -214 1
-457 3 -322 3 -460 1 -505 -8 -195 -38 -347 -136 -466 -301 -26 -36 -82 -145
-142 -279 -12 -27 -33 -72 -46 -99 -13 -28 -24 -53 -24 -57 0 -4 62 -8 138 -9
479 -6 561 -8 570 -14 6 -3 13 -2 17 4 4 6 11 7 17 4 21 -13 1446 -23 1583
-11 234 21 378 63 499 146 86 60 227 222 287 331 8 14 16 27 19 30 6 6 21 33
63 110 88 161 274 459 308 492 9 10 20 26 24 38 3 11 11 20 16 20 5 0 9 7 9
15 0 8 3 15 8 15 4 0 22 23 41 50 19 28 38 50 43 50 4 0 8 5 8 11 0 6 15 28
33 48 17 21 41 49 52 63 92 118 361 389 507 510 66 55 194 155 228 178 19 13
37 27 40 30 5 5 15 12 89 58 24 15 48 32 55 37 11 10 142 89 229 139 72 41
334 170 397 196 30 12 69 28 85 36 27 12 112 44 250 94 42 16 83 30 105 35 3
1 12 4 20 8 8 3 41 13 73 23 31 9 57 21 57 25 0 5 -3 9 -7 9 -5 0 -21 13 -38
28 -62 57 -242 209 -280 237 -22 17 -42 32 -45 35 -3 3 -23 14 -45 25 -22 11
-42 23 -45 26 -5 5 -122 44 -170 56 -30 7 -215 12 -250 6z"/>
<path d="M9538 8215 c-2 -2 -39 -6 -83 -9 -81 -6 -132 -11 -189 -20 -17 -2
-53 -8 -81 -12 -27 -3 -59 -8 -70 -10 -60 -12 -72 -14 -95 -19 -14 -3 -36 -8
-50 -11 -14 -3 -43 -10 -65 -15 -22 -5 -49 -12 -60 -14 -44 -10 -251 -69 -275
-78 -8 -3 -46 -15 -85 -27 -38 -12 -83 -27 -100 -34 -16 -7 -46 -19 -65 -26
-19 -6 -48 -18 -65 -25 -16 -8 -54 -23 -82 -34 -108 -43 -367 -175 -461 -233
-55 -34 -75 -46 -92 -54 -8 -4 -17 -10 -20 -13 -4 -5 -117 -82 -209 -143 -14
-10 -39 -29 -56 -43 -16 -14 -61 -50 -100 -81 -102 -82 -104 -84 -280 -259
-152 -151 -205 -210 -289 -315 -20 -25 -44 -54 -54 -66 -11 -11 -28 -34 -38
-50 -10 -16 -23 -34 -29 -41 -5 -7 -15 -18 -21 -26 -7 -7 -23 -31 -37 -53 -15
-21 -44 -65 -67 -98 -22 -32 -40 -61 -40 -65 0 -4 -8 -16 -17 -27 -23 -25 -53
-74 -60 -96 -3 -10 -9 -18 -14 -18 -5 0 -9 -4 -9 -9 0 -5 -23 -48 -50 -96 -27
-48 -50 -88 -50 -91 0 -10 -133 -227 -175 -284 -54 -74 -187 -206 -216 -215
-10 -4 -19 -10 -19 -14 0 -14 -199 -108 -285 -136 -97 -31 -278 -66 -420 -80
-22 -3 -146 -7 -275 -10 -129 -3 -239 -6 -245 -6 -5 -1 -14 0 -20 1 -10 2
-645 8 -1368 14 -224 2 -410 6 -413 9 -3 3 -11 4 -17 1 -23 -8 -109 -10 -113
-2 -3 5 -9 6 -13 4 -7 -5 -88 -7 -171 -5 -25 0 -49 0 -55 -1 -5 -1 -14 -1 -20
0 -5 1 -32 1 -60 1 -67 -2 -45 -2 -343 1 -144 2 -262 -1 -262 -5 0 -5 -5 -5
-11 -2 -13 9 -185 9 -198 1 -5 -4 -12 -2 -15 3 -3 4 -23 5 -45 1 -22 -4 -45
-4 -52 1 -7 4 -17 5 -21 3 -5 -3 -130 -7 -278 -9 -589 -9 -706 -23 -864 -99
-93 -45 -142 -92 -184 -176 -20 -41 -23 -193 -4 -212 7 -7 12 -18 12 -25 0
-28 74 -130 139 -193 65 -63 167 -138 254 -187 48 -27 415 -212 422 -213 3 0
31 -12 62 -26 32 -15 78 -35 103 -45 25 -10 101 -41 170 -69 120 -50 307 -123
360 -140 35 -12 222 -79 240 -87 8 -3 20 -7 26 -8 5 -2 57 -19 115 -38 57 -19
149 -49 204 -66 55 -17 120 -38 145 -46 181 -58 746 -206 840 -220 8 -1 33 -7
55 -13 38 -11 226 -51 270 -57 11 -2 20 -4 20 -5 0 -1 9 -3 20 -4 11 -2 58
-10 105 -19 102 -19 129 -24 195 -33 28 -3 52 -8 55 -9 3 -2 33 -7 65 -10 33
-4 67 -8 75 -10 44 -8 141 -20 240 -31 25 -3 61 -7 80 -9 19 -2 69 -7 110 -10
41 -4 95 -8 120 -11 253 -26 877 -25 1060 0 19 3 60 8 91 10 107 10 307 45
424 74 118 30 201 54 295 87 58 20 115 39 128 42 12 3 22 9 22 12 0 4 6 8 13
8 24 0 307 137 358 174 15 10 29 19 32 19 4 0 79 48 161 102 22 15 186 142
231 178 37 31 333 327 360 360 140 176 179 227 228 295 31 44 61 85 67 92 5 7
10 17 10 23 0 5 4 10 9 10 5 0 13 10 17 23 4 12 10 24 14 27 8 6 130 200 130
207 0 2 11 19 25 37 14 18 25 38 25 44 0 7 5 12 10 12 6 0 10 7 10 15 0 8 4
15 8 15 4 0 16 14 26 32 11 17 25 39 32 47 7 9 34 45 60 80 45 60 219 243 275
287 43 35 140 99 200 132 114 63 316 131 436 146 18 3 36 7 40 9 5 3 35 8 68
12 33 4 71 8 85 10 91 11 152 17 200 20 30 2 93 6 140 9 126 9 254 16 530 31
47 3 108 7 135 10 28 2 82 7 120 10 39 3 85 8 103 10 69 10 109 16 165 26 32
6 70 12 85 14 15 2 34 6 42 9 8 3 26 8 40 10 14 3 43 10 65 16 22 6 47 12 55
14 62 16 260 100 325 139 53 32 100 61 105 67 3 3 23 19 45 35 163 121 303
325 351 510 27 104 25 294 -5 400 -57 206 -208 415 -411 570 -36 28 -67 52
-70 55 -3 3 -14 10 -25 17 -123 75 -172 102 -180 103 -5 1 -17 7 -25 14 -40
35 -314 138 -491 185 -110 29 -130 34 -194 46 -16 3 -41 8 -55 11 -14 3 -43 8
-64 10 -22 3 -42 7 -46 9 -3 2 -37 6 -75 10 -39 4 -81 9 -95 11 -66 13 -691
30 -702 19z m1072 -937 c76 -24 140 -85 168 -160 49 -130 -12 -282 -135 -339
-127 -58 -283 -8 -351 112 -79 141 -9 329 145 385 35 13 135 14 173 2z"/>
</g>
</svg>
