<?xml version="1.0" standalone="no"?>
<!DOCTYPE svg PUBLIC "-//W3C//DTD SVG 20010904//EN"
 "http://www.w3.org/TR/2001/REC-SVG-20010904/DTD/svg10.dtd">
<svg version="1.0" xmlns="http://www.w3.org/2000/svg"
 width="700.000000pt" height="700.000000pt" viewBox="0 0 700.000000 700.000000"
 preserveAspectRatio="xMidYMid meet">
<metadata>
Created by potrace 1.14, written by Peter Selinger 2001-2017
</metadata>
<g transform="translate(0.000000,700.000000) scale(0.100000,-0.100000)"
fill="#000000" stroke="none">
<path d="M343 6985 c-163 -44 -277 -158 -327 -324 -15 -50 -16 -333 -16 -3161
0 -2828 1 -3111 16 -3161 50 -169 165 -281 331 -324 50 -13 441 -15 3153 -15
3380 0 3143 -4 3262 56 66 33 149 116 182 182 60 119 56 -118 56 3262 0 2712
-2 3103 -15 3153 -44 169 -163 288 -332 332 -84 22 -6229 21 -6310 0z m4170
-2238 c45 -20 227 -160 227 -173 0 -2 -26 -11 -57 -20 -93 -27 -271 -101 -371
-155 -355 -189 -605 -439 -837 -837 -133 -228 -211 -291 -390 -313 -106 -13
-1145 -2 -1145 13 0 4 23 54 51 111 61 121 121 185 205 217 52 19 76 20 447
20 511 0 474 -14 617 245 40 72 95 162 122 202 75 108 221 266 333 361 166
140 436 308 560 349 62 20 170 11 238 -20z m1102 -272 c270 -47 466 -136 601
-271 239 -239 171 -562 -151 -719 -129 -63 -265 -86 -648 -110 -373 -23 -478
-47 -611 -136 -101 -67 -156 -131 -293 -339 -139 -210 -200 -286 -326 -406
-179 -172 -377 -280 -627 -344 -281 -72 -704 -71 -1135 1 -528 89 -1119 276
-1519 482 -182 94 -266 182 -266 278 0 73 49 125 147 156 80 25 475 33 1378
26 630 -4 862 -3 930 6 180 24 311 87 389 187 22 29 79 119 125 199 226 390
495 646 861 822 175 84 442 161 635 183 112 12 403 4 510 -15z"/>
<path d="M5625 4049 c-106 -30 -125 -173 -32 -229 124 -76 255 78 161 189 -23
27 -39 36 -84 46 -8 2 -29 -1 -45 -6z"/>
</g>
</svg>
