<svg version="1.1" xmlns="http://www.w3.org/2000/svg" viewBox="0.05 318.42 1200.02 563.12">
 <path d="m1025.8 497.26c0-14.93 12.098-27 27.023-27 14.902 0 27 12.098 27 27 0 14.902-12.098 27-27 27-14.93 0.023438-27.023-12.074-27.023-27m-433.8 81.887c60.91-111.57 146.47-181.18 268.68-217.2l-28.656-24.742c-22.848-19.754-53.23-24.457-80.52-11.52-50.879 24.121-97.246 56.641-135.21 95.641-85.391 87.84-65.977 134.71-119.11 142.7l-141.86-1.2969c-29.039-0.26562-54.047 15.145-66.84 41.207l-16.031 34.273c50.855 0.74219 101.47 1.9453 150.48 2.5195l46.273 0.38281c69.09 0.023438 91.438-4.5117 122.8-61.969zm310.3-194.28c-126.36 26.305-220.34 97.176-281.86 209.81-24.938 45.695-43.055 78.863-151.27 78.863l-46.656-0.38281c-94.297-1.1523-294.91-3.6484-365.43 0.35938-66.625 3.0234-76.727 50.113-20.496 84.215 57.434 34.824 223.7 100.3 383.86 118.39 180 20.352 301.63-13.055 393.05-165.34 54.695-91.152 97.105-93.121 198.5-98.566 59.375-3.1914 114.96-6.1914 155.04-40.777 39.77-34.344 44.426-84.793 9.457-125.3-59.469-69.02-190.99-78.574-274.2-61.27z" fill-rule="evenodd"/>
</svg>